<?xml version="1.0" encoding="UTF-8" ?>
<!DOCTYPE svg PUBLIC "-//W3C//DTD SVG 1.1//EN" "http://www.w3.org/Graphics/SVG/1.1/DTD/svg11.dtd">
<svg width="1253pt" height="1234pt" viewBox="0 0 1253 1234" version="1.1" xmlns="http://www.w3.org/2000/svg">
<g id="#ffffffff">
<path fill="#ffffff" opacity="1.00" d=" M 471.17 147.30 C 509.42 144.50 548.35 148.62 584.66 161.25 C 623.86 174.76 659.68 197.73 688.75 227.25 C 715.82 253.95 737.32 285.96 753.96 320.05 C 791.11 397.16 803.15 485.35 792.11 569.95 C 783.75 634.77 762.48 698.80 724.78 752.59 C 695.57 794.41 655.35 828.99 608.15 848.85 C 576.87 862.23 543.03 869.06 509.12 870.67 C 472.67 872.24 435.77 868.08 400.99 856.81 C 363.03 844.56 327.98 823.48 299.30 795.77 C 272.17 769.85 250.53 738.54 234.09 704.89 C 214.71 665.30 202.37 622.47 195.90 578.93 C 190.93 544.91 189.47 510.36 191.93 476.07 C 196.21 417.71 211.57 359.87 239.02 308.06 C 257.05 274.09 280.43 242.78 309.07 217.03 C 331.91 196.38 358.17 179.48 386.58 167.59 C 413.42 156.24 442.16 149.67 471.17 147.30 Z" />
</g>
<g id="#000166ff">
<path fill="#000166" opacity="1.00" d=" M 476.77 1.71 C 547.41 -0.48 618.84 9.75 685.01 35.02 C 724.36 50.04 761.75 70.30 795.52 95.51 C 851.77 137.21 897.56 192.58 929.15 255.01 C 958.56 312.58 976.04 375.87 983.07 440.03 C 986.42 472.21 987.82 504.65 986.03 536.98 C 983.57 588.34 973.86 639.37 957.02 687.97 C 930.52 764.52 885.64 834.94 825.95 889.87 C 768.85 942.82 698.25 980.91 622.81 1000.12 C 567.49 1014.30 509.81 1018.72 452.91 1014.44 C 395.10 1010.11 337.90 996.06 285.09 972.02 C 224.07 944.37 169.16 903.42 125.13 852.94 C 71.13 791.34 33.53 715.94 14.74 636.32 C 5.55 597.68 0.89 558.04 0.00 518.36 L 0.00 497.65 C 0.82 464.49 3.72 431.34 9.72 398.69 C 24.02 319.83 55.67 243.55 105.14 180.19 C 143.25 131.02 191.81 90.03 246.62 60.59 C 317.04 22.52 396.99 3.72 476.77 1.71 M 471.17 147.30 C 442.16 149.67 413.42 156.24 386.58 167.59 C 358.17 179.48 331.91 196.38 309.07 217.03 C 280.43 242.78 257.05 274.09 239.02 308.06 C 211.57 359.87 196.21 417.71 191.93 476.07 C 189.47 510.36 190.93 544.91 195.90 578.93 C 202.37 622.47 214.71 665.30 234.09 704.89 C 250.53 738.54 272.17 769.85 299.30 795.77 C 327.98 823.48 363.03 844.56 400.99 856.81 C 435.77 868.08 472.67 872.24 509.12 870.67 C 543.03 869.06 576.87 862.23 608.15 848.85 C 655.35 828.99 695.57 794.41 724.78 752.59 C 762.48 698.80 783.75 634.77 792.11 569.95 C 803.15 485.35 791.11 397.16 753.96 320.05 C 737.32 285.96 715.82 253.95 688.75 227.25 C 659.68 197.73 623.86 174.76 584.66 161.25 C 548.35 148.62 509.42 144.50 471.17 147.30 Z" />
<path fill="#000166" opacity="1.00" d=" M 976.39 826.95 C 1012.06 809.19 1051.33 798.47 1091.18 796.60 C 1111.53 795.38 1132.15 796.90 1151.98 801.80 C 1172.42 807.02 1192.20 816.68 1206.97 832.01 C 1219.47 844.30 1228.02 860.21 1233.00 876.94 C 1238.92 897.64 1240.42 919.62 1237.70 940.97 C 1235.10 960.23 1228.64 978.80 1220.17 996.23 C 1204.25 1028.29 1182.03 1056.71 1158.29 1083.31 C 1132.73 1111.78 1105.19 1138.38 1077.68 1164.95 C 1133.11 1164.77 1188.54 1164.94 1243.97 1164.86 C 1246.98 1164.83 1250.05 1164.67 1253.00 1165.47 L 1253.00 1232.62 C 1251.32 1232.83 1249.66 1233.06 1248.01 1233.13 C 1154.16 1233.12 1060.31 1233.13 966.47 1233.12 C 966.46 1209.01 966.46 1184.90 966.47 1160.78 C 972.88 1154.38 979.73 1148.45 986.30 1142.21 C 1014.83 1116.17 1042.95 1089.64 1069.45 1061.51 C 1094.94 1033.86 1119.77 1004.95 1137.52 971.58 C 1145.56 955.91 1152.30 938.85 1152.18 920.98 C 1152.10 908.20 1147.49 895.34 1138.66 886.00 C 1127.19 873.57 1110.50 867.29 1094.01 865.25 C 1071.75 862.86 1049.27 867.49 1028.55 875.51 C 1012.56 881.58 997.72 890.16 983.20 899.07 C 980.93 875.03 978.57 851.00 976.39 826.95 Z" />
</g>
</svg>
